<svg width="44" height="24" viewBox="0 0 44 24" fill="none" xmlns="http://www.w3.org/2000/svg">
<path d="M6.10352 7.06348H11.2876V23.5105H6.10352V7.06348Z" fill="#163D5C"/>
<path d="M6.10352 7.06348H11.2876V23.5105H6.10352V7.06348Z" fill="#163D5C"/>
<path d="M6.10352 7.06348H11.2876V23.5105H6.10352V7.06348Z" stroke="url(#paint0_linear_2976_51315)" stroke-width="0.590475" stroke-linecap="round" stroke-linejoin="round"/>
<path d="M12.3712 1.62695H18.5852V11.2253H13.8137V23.4868H12.3711L12.3712 1.62695Z" fill="#163D5C"/>
<path d="M12.3712 1.62695H18.5852V11.2253H13.8137V23.4868H12.3711L12.3712 1.62695Z" fill="#163D5C"/>
<path d="M12.3712 1.62695H18.5852V11.2253H13.8137V23.4868H12.3711L12.3712 1.62695Z" stroke="url(#paint1_linear_2976_51315)" stroke-width="0.590475" stroke-linecap="round" stroke-linejoin="round"/>
<path d="M15.1465 12.667H20.2536V23.4871H15.1465V12.667Z" fill="#163D5C"/>
<path d="M15.1465 12.667H20.2536V23.4871H15.1465V12.667Z" fill="#163D5C"/>
<path d="M15.1465 12.667H20.2536V23.4871H15.1465V12.667Z" stroke="url(#paint2_linear_2976_51315)" stroke-width="0.590475" stroke-linecap="round" stroke-linejoin="round"/>
<path d="M19.9727 4.56738H27.5737V23.4867H21.5816V11.2252H19.9728L19.9727 4.56738Z" fill="#163D5C"/>
<path d="M19.9727 4.56738H27.5737V23.4867H21.5816V11.2252H19.9728L19.9727 4.56738Z" fill="#163D5C"/>
<path d="M19.9727 4.56738H27.5737V23.4867H21.5816V11.2252H19.9728L19.9727 4.56738Z" stroke="url(#paint3_linear_2976_51315)" stroke-width="0.590475" stroke-linecap="round" stroke-linejoin="round"/>
<path d="M28.8516 9.2832H34.3442V14.1658H31.6257V23.4867H28.8516V9.2832Z" fill="#163D5C"/>
<path d="M28.8516 9.2832H34.3442V14.1658H31.6257V23.4867H28.8516V9.2832Z" fill="#163D5C"/>
<path d="M28.8516 9.2832H34.3442V14.1658H31.6257V23.4867H28.8516V9.2832Z" stroke="url(#paint4_linear_2976_51315)" stroke-width="0.590475" stroke-linecap="round" stroke-linejoin="round"/>
<path d="M32.7891 15.6631H36.8961V23.506H32.7891V15.6631Z" fill="#163D5C"/>
<path d="M32.7891 15.6631H36.8961V23.506H32.7891V15.6631Z" fill="#163D5C"/>
<path d="M32.7891 15.6631H36.8961V23.506H32.7891V15.6631Z" stroke="url(#paint5_linear_2976_51315)" stroke-width="0.590475" stroke-linecap="round" stroke-linejoin="round"/>
<path d="M30.5703 8.11816H33.5854V9.30087H30.5703V8.11816Z" fill="#163D5C"/>
<path d="M30.5703 8.11816H33.5854V9.30087H30.5703V8.11816Z" fill="#163D5C"/>
<path d="M30.5703 8.11816H33.5854V9.30087H30.5703V8.11816Z" stroke="url(#paint6_linear_2976_51315)" stroke-width="0.590475" stroke-linecap="round" stroke-linejoin="round"/>
<path d="M13.0938 0.294922H16.2281V1.61855H13.0938V0.294922Z" fill="#163D5C"/>
<path d="M13.0938 0.294922H16.2281V1.61855H13.0938V0.294922Z" fill="#163D5C"/>
<path d="M13.0938 0.294922H16.2281V1.61855H13.0938V0.294922Z" stroke="url(#paint7_linear_2976_51315)" stroke-width="0.590475" stroke-linecap="round" stroke-linejoin="round"/>
<path d="M22.082 3.29102H25.4662V4.56716H22.082V3.29102Z" fill="#163D5C"/>
<path d="M22.082 3.29102H25.4662V4.56716H22.082V3.29102Z" fill="#163D5C"/>
<path d="M22.082 3.29102H25.4662V4.56716H22.082V3.29102Z" stroke="url(#paint8_linear_2976_51315)" stroke-width="0.590475" stroke-linecap="round" stroke-linejoin="round"/>
<path d="M0 23.4863H43.054H0Z" fill="#163D5C"/>
<path d="M0 23.4863H43.054H0Z" fill="#163D5C"/>
<path d="M0 23.4863H43.054" stroke="url(#paint9_linear_2976_51315)" stroke-width="0.590475"/>
<path d="M3.43991 20.6013V20.6567C3.43991 21.3225 2.99607 21.8774 2.49683 21.8774C1.94184 21.8774 1.55374 21.3224 1.55374 20.6567V20.6013C1.33182 20.2683 1.2207 19.8801 1.2207 19.4917C1.2207 18.5486 1.77569 17.8271 2.49684 17.8271C3.218 17.8271 3.77298 18.5483 3.77298 19.4917C3.77298 19.8802 3.66186 20.2686 3.43994 20.6013H3.43991Z" fill="#163D5C"/>
<path d="M3.43991 20.6013V20.6567C3.43991 21.3225 2.99607 21.8774 2.49683 21.8774C1.94184 21.8774 1.55374 21.3224 1.55374 20.6567V20.6013C1.33182 20.2683 1.2207 19.8801 1.2207 19.4917C1.2207 18.5486 1.77569 17.8271 2.49684 17.8271C3.218 17.8271 3.77298 18.5483 3.77298 19.4917C3.77298 19.8802 3.66186 20.2686 3.43994 20.6013H3.43991Z" fill="#163D5C"/>
<path d="M3.43991 20.6013V20.6567C3.43991 21.3225 2.99607 21.8774 2.49683 21.8774C1.94184 21.8774 1.55374 21.3224 1.55374 20.6567V20.6013C1.33182 20.2683 1.2207 19.8801 1.2207 19.4917C1.2207 18.5486 1.77569 17.8271 2.49684 17.8271C3.218 17.8271 3.77298 18.5483 3.77298 19.4917C3.77298 19.8802 3.66186 20.2686 3.43994 20.6013H3.43991Z" stroke="url(#paint10_linear_2976_51315)" stroke-width="0.590475" stroke-linecap="round" stroke-linejoin="round"/>
<path d="M2.49609 21.877V23.4861V21.877Z" fill="#163D5C"/>
<path d="M2.49609 21.877V23.4861V21.877Z" fill="#163D5C"/>
<path d="M2.49609 21.877V23.4861" stroke="url(#paint11_linear_2976_51315)" stroke-width="0.590475" stroke-linecap="round" stroke-linejoin="round"/>
<path d="M41.0005 20.6013V20.6567C41.0005 21.3225 40.612 21.8774 40.0574 21.8774C39.5581 21.8774 39.1143 21.3224 39.1143 20.6567V20.6013C38.8924 20.2683 38.7812 19.8801 38.7812 19.4917C38.7812 18.5486 39.3362 17.8271 40.0574 17.8271C40.7785 17.8271 41.3335 18.5483 41.3335 19.4917C41.3335 19.8802 41.2224 20.2686 41.0005 20.6013H41.0005Z" fill="#163D5C"/>
<path d="M41.0005 20.6013V20.6567C41.0005 21.3225 40.612 21.8774 40.0574 21.8774C39.5581 21.8774 39.1143 21.3224 39.1143 20.6567V20.6013C38.8924 20.2683 38.7812 19.8801 38.7812 19.4917C38.7812 18.5486 39.3362 17.8271 40.0574 17.8271C40.7785 17.8271 41.3335 18.5483 41.3335 19.4917C41.3335 19.8802 41.2224 20.2686 41.0005 20.6013H41.0005Z" fill="#163D5C"/>
<path d="M41.0005 20.6013V20.6567C41.0005 21.3225 40.612 21.8774 40.0574 21.8774C39.5581 21.8774 39.1143 21.3224 39.1143 20.6567V20.6013C38.8924 20.2683 38.7812 19.8801 38.7812 19.4917C38.7812 18.5486 39.3362 17.8271 40.0574 17.8271C40.7785 17.8271 41.3335 18.5483 41.3335 19.4917C41.3335 19.8802 41.2224 20.2686 41.0005 20.6013H41.0005Z" stroke="url(#paint12_linear_2976_51315)" stroke-width="0.590475" stroke-linecap="round" stroke-linejoin="round"/>
<path d="M40.0586 21.877V23.4861V21.877Z" fill="#163D5C"/>
<path d="M40.0586 21.877V23.4861V21.877Z" fill="#163D5C"/>
<path d="M40.0586 21.877V23.4861" stroke="url(#paint13_linear_2976_51315)" stroke-width="0.590475" stroke-linecap="round" stroke-linejoin="round"/>
<path d="M16.1445 14.2207H17.3144V15.3906H16.1445V14.2207Z" fill="#163D5C"/>
<path d="M16.1445 14.2207H17.3144V15.3906H16.1445V14.2207Z" fill="#163D5C"/>
<path d="M16.1445 14.2207H17.3144V15.3906H16.1445V14.2207Z" stroke="url(#paint14_linear_2976_51315)" stroke-width="0.590475" stroke-linecap="round" stroke-linejoin="round"/>
<path d="M18.0859 14.2207H19.2558V15.3906H18.0859V14.2207Z" fill="#163D5C"/>
<path d="M18.0859 14.2207H19.2558V15.3906H18.0859V14.2207Z" fill="#163D5C"/>
<path d="M18.0859 14.2207H19.2558V15.3906H18.0859V14.2207Z" stroke="url(#paint15_linear_2976_51315)" stroke-width="0.590475" stroke-linecap="round" stroke-linejoin="round"/>
<path d="M16.1445 18.9365H17.3144V20.1064H16.1445V18.9365Z" fill="#163D5C"/>
<path d="M16.1445 18.9365H17.3144V20.1064H16.1445V18.9365Z" fill="#163D5C"/>
<path d="M16.1445 18.9365H17.3144V20.1064H16.1445V18.9365Z" stroke="url(#paint16_linear_2976_51315)" stroke-width="0.590475" stroke-linecap="round" stroke-linejoin="round"/>
<path d="M18.0859 18.9365H19.2558V20.1064H18.0859V18.9365Z" fill="#163D5C"/>
<path d="M18.0859 18.9365H19.2558V20.1064H18.0859V18.9365Z" fill="#163D5C"/>
<path d="M18.0859 18.9365H19.2558V20.1064H18.0859V18.9365Z" stroke="url(#paint17_linear_2976_51315)" stroke-width="0.590475" stroke-linecap="round" stroke-linejoin="round"/>
<path d="M16.1445 16.5508H17.3144V17.7207H16.1445V16.5508Z" fill="#163D5C"/>
<path d="M16.1445 16.5508H17.3144V17.7207H16.1445V16.5508Z" fill="#163D5C"/>
<path d="M16.1445 16.5508H17.3144V17.7207H16.1445V16.5508Z" stroke="url(#paint18_linear_2976_51315)" stroke-width="0.590475" stroke-linecap="round" stroke-linejoin="round"/>
<path d="M18.0859 16.5508H19.2558V17.7207H18.0859V16.5508Z" fill="#163D5C"/>
<path d="M18.0859 16.5508H19.2558V17.7207H18.0859V16.5508Z" fill="#163D5C"/>
<path d="M18.0859 16.5508H19.2558V17.7207H18.0859V16.5508Z" stroke="url(#paint19_linear_2976_51315)" stroke-width="0.590475" stroke-linecap="round" stroke-linejoin="round"/>
<path d="M16.1445 21.2119H17.3144V22.3818H16.1445V21.2119Z" fill="#163D5C"/>
<path d="M16.1445 21.2119H17.3144V22.3818H16.1445V21.2119Z" fill="#163D5C"/>
<path d="M16.1445 21.2119H17.3144V22.3818H16.1445V21.2119Z" stroke="url(#paint20_linear_2976_51315)" stroke-width="0.590475" stroke-linecap="round" stroke-linejoin="round"/>
<path d="M18.0859 21.2119H19.2558V22.3818H18.0859V21.2119Z" fill="#163D5C"/>
<path d="M18.0859 21.2119H19.2558V22.3818H18.0859V21.2119Z" fill="#163D5C"/>
<path d="M18.0859 21.2119H19.2558V22.3818H18.0859V21.2119Z" stroke="url(#paint21_linear_2976_51315)" stroke-width="0.590475" stroke-linecap="round" stroke-linejoin="round"/>
<path d="M33.5117 16.4961H34.5292V17.5136H33.5117V16.4961Z" fill="#163D5C"/>
<path d="M33.5117 16.4961H34.5292V17.5136H33.5117V16.4961Z" fill="#163D5C"/>
<path d="M33.5117 16.4961H34.5292V17.5136H33.5117V16.4961Z" stroke="url(#paint22_linear_2976_51315)" stroke-width="0.590475" stroke-linecap="round" stroke-linejoin="round"/>
<path d="M35.1758 16.4961H36.1933V17.5136H35.1758V16.4961Z" fill="#163D5C"/>
<path d="M35.1758 16.4961H36.1933V17.5136H35.1758V16.4961Z" fill="#163D5C"/>
<path d="M35.1758 16.4961H36.1933V17.5136H35.1758V16.4961Z" stroke="url(#paint23_linear_2976_51315)" stroke-width="0.590475" stroke-linecap="round" stroke-linejoin="round"/>
<path d="M33.5117 18.4932H34.5292V19.5106H33.5117V18.4932Z" fill="#163D5C"/>
<path d="M33.5117 18.4932H34.5292V19.5106H33.5117V18.4932Z" fill="#163D5C"/>
<path d="M33.5117 18.4932H34.5292V19.5106H33.5117V18.4932Z" stroke="url(#paint24_linear_2976_51315)" stroke-width="0.590475" stroke-linecap="round" stroke-linejoin="round"/>
<path d="M35.1758 18.4932H36.1933V19.5106H35.1758V18.4932Z" fill="#163D5C"/>
<path d="M35.1758 18.4932H36.1933V19.5106H35.1758V18.4932Z" fill="#163D5C"/>
<path d="M35.1758 18.4932H36.1933V19.5106H35.1758V18.4932Z" stroke="url(#paint25_linear_2976_51315)" stroke-width="0.590475" stroke-linecap="round" stroke-linejoin="round"/>
<path d="M33.5117 20.4902H34.5292V21.5077H33.5117V20.4902Z" fill="#163D5C"/>
<path d="M33.5117 20.4902H34.5292V21.5077H33.5117V20.4902Z" fill="#163D5C"/>
<path d="M33.5117 20.4902H34.5292V21.5077H33.5117V20.4902Z" stroke="url(#paint26_linear_2976_51315)" stroke-width="0.590475" stroke-linecap="round" stroke-linejoin="round"/>
<path d="M35.1758 20.4902H36.1933V21.5077H35.1758V20.4902Z" fill="#163D5C"/>
<path d="M35.1758 20.4902H36.1933V21.5077H35.1758V20.4902Z" fill="#163D5C"/>
<path d="M35.1758 20.4902H36.1933V21.5077H35.1758V20.4902Z" stroke="url(#paint27_linear_2976_51315)" stroke-width="0.590475" stroke-linecap="round" stroke-linejoin="round"/>
<path d="M11.2656 7.11621V23.4326H6.15625V7.11621H11.2656Z" fill="#163D5C"/>
<path d="M11.2656 7.11621V23.4326H6.15625V7.11621H11.2656Z" fill="#163D5C"/>
<path d="M11.2656 7.11621V23.4326H6.15625V7.11621H11.2656Z" stroke="url(#paint28_linear_2976_51315)" stroke-width="0.105566"/>
<path d="M18.5322 1.67969V11.1729H13.7607V23.4346H12.4238V1.67969H18.5322Z" fill="#163D5C"/>
<path d="M18.5322 1.67969V11.1729H13.7607V23.4346H12.4238V1.67969H18.5322Z" fill="#163D5C"/>
<path d="M18.5322 1.67969V11.1729H13.7607V23.4346H12.4238V1.67969H18.5322Z" stroke="url(#paint29_linear_2976_51315)" stroke-width="0.105566"/>
<path d="M27.5205 4.62012V23.4336H21.6348V11.1719H20.0254V4.62012H27.5205Z" fill="#163D5C"/>
<path d="M27.5205 4.62012V23.4336H21.6348V11.1719H20.0254V4.62012H27.5205Z" fill="#163D5C"/>
<path d="M27.5205 4.62012V23.4336H21.6348V11.1719H20.0254V4.62012H27.5205Z" stroke="url(#paint30_linear_2976_51315)" stroke-width="0.105566"/>
<path d="M34.291 9.33496V14.1123H31.5732V23.4326H28.9043V9.33496H34.291Z" fill="#163D5C"/>
<path d="M34.291 9.33496V14.1123H31.5732V23.4326H28.9043V9.33496H34.291Z" fill="#163D5C"/>
<path d="M34.291 9.33496V14.1123H31.5732V23.4326H28.9043V9.33496H34.291Z" stroke="url(#paint31_linear_2976_51315)" stroke-width="0.105566"/>
<path d="M33.5137 8.16992V9.22949H30.623V8.16992H33.5137Z" fill="#163D5C"/>
<path d="M33.5137 8.16992V9.22949H30.623V8.16992H33.5137Z" fill="#163D5C"/>
<path d="M33.5137 8.16992V9.22949H30.623V8.16992H33.5137Z" stroke="url(#paint32_linear_2976_51315)" stroke-width="0.105566"/>
<path d="M25.4131 3.34375V4.51465H22.1348V3.34375H25.4131Z" fill="#163D5C"/>
<path d="M25.4131 3.34375V4.51465H22.1348V3.34375H25.4131Z" fill="#163D5C"/>
<path d="M25.4131 3.34375V4.51465H22.1348V3.34375H25.4131Z" stroke="url(#paint33_linear_2976_51315)" stroke-width="0.105566"/>
<path d="M16.1484 0.347656V1.57324H13.1465V0.347656H16.1484Z" fill="#163D5C"/>
<path d="M16.1484 0.347656V1.57324H13.1465V0.347656H16.1484Z" fill="#163D5C"/>
<path d="M16.1484 0.347656V1.57324H13.1465V0.347656H16.1484Z" stroke="url(#paint34_linear_2976_51315)" stroke-width="0.105566"/>
<defs>
<linearGradient id="paint0_linear_2976_51315" x1="11.5024" y1="20.5016" x2="4.60273" y2="20.3669" gradientUnits="userSpaceOnUse">
<stop stop-color="#6D89CF"/>
<stop offset="1" stop-color="#EEEEFF" stop-opacity="0"/>
</linearGradient>
<linearGradient id="paint1_linear_2976_51315" x1="18.8427" y1="19.4876" x2="10.5715" y2="19.3421" gradientUnits="userSpaceOnUse">
<stop stop-color="#6D89CF"/>
<stop offset="1" stop-color="#EEEEFF" stop-opacity="0"/>
</linearGradient>
<linearGradient id="paint2_linear_2976_51315" x1="20.4652" y1="21.5076" x2="13.6712" y2="21.309" gradientUnits="userSpaceOnUse">
<stop stop-color="#6D89CF"/>
<stop offset="1" stop-color="#EEEEFF" stop-opacity="0"/>
</linearGradient>
<linearGradient id="paint3_linear_2976_51315" x1="27.8886" y1="20.0255" x2="17.7746" y2="19.7739" gradientUnits="userSpaceOnUse">
<stop stop-color="#6D89CF"/>
<stop offset="1" stop-color="#EEEEFF" stop-opacity="0"/>
</linearGradient>
<linearGradient id="paint4_linear_2976_51315" x1="34.5718" y1="20.8883" x2="27.2629" y2="20.7133" gradientUnits="userSpaceOnUse">
<stop stop-color="#6D89CF"/>
<stop offset="1" stop-color="#EEEEFF" stop-opacity="0"/>
</linearGradient>
<linearGradient id="paint5_linear_2976_51315" x1="37.0662" y1="22.0712" x2="31.6038" y2="21.8941" gradientUnits="userSpaceOnUse">
<stop stop-color="#6D89CF"/>
<stop offset="1" stop-color="#EEEEFF" stop-opacity="0"/>
</linearGradient>
<linearGradient id="paint6_linear_2976_51315" x1="33.7104" y1="9.0845" x2="29.7935" y2="8.46624" gradientUnits="userSpaceOnUse">
<stop stop-color="#6D89CF"/>
<stop offset="1" stop-color="#EEEEFF" stop-opacity="0"/>
</linearGradient>
<linearGradient id="paint7_linear_2976_51315" x1="16.358" y1="1.3764" x2="12.2726" y2="0.77739" gradientUnits="userSpaceOnUse">
<stop stop-color="#6D89CF"/>
<stop offset="1" stop-color="#EEEEFF" stop-opacity="0"/>
</linearGradient>
<linearGradient id="paint8_linear_2976_51315" x1="25.6064" y1="4.33369" x2="21.2189" y2="3.61327" gradientUnits="userSpaceOnUse">
<stop stop-color="#6D89CF"/>
<stop offset="1" stop-color="#EEEEFF" stop-opacity="0"/>
</linearGradient>
<linearGradient id="paint9_linear_2976_51315" x1="44.838" y1="24.3034" x2="37.7665" y2="5.45246" gradientUnits="userSpaceOnUse">
<stop stop-color="#6D89CF"/>
<stop offset="1" stop-color="#EEEEFF" stop-opacity="0"/>
</linearGradient>
<linearGradient id="paint10_linear_2976_51315" x1="3.87874" y1="21.1364" x2="0.485697" y2="21.004" gradientUnits="userSpaceOnUse">
<stop stop-color="#6D89CF"/>
<stop offset="1" stop-color="#EEEEFF" stop-opacity="0"/>
</linearGradient>
<linearGradient id="paint11_linear_2976_51315" x1="3.53753" y1="23.1917" x2="2.20806" y2="23.1406" gradientUnits="userSpaceOnUse">
<stop stop-color="#6D89CF"/>
<stop offset="1" stop-color="#EEEEFF" stop-opacity="0"/>
</linearGradient>
<linearGradient id="paint12_linear_2976_51315" x1="41.4393" y1="21.1364" x2="38.0462" y2="21.004" gradientUnits="userSpaceOnUse">
<stop stop-color="#6D89CF"/>
<stop offset="1" stop-color="#EEEEFF" stop-opacity="0"/>
</linearGradient>
<linearGradient id="paint13_linear_2976_51315" x1="41.1" y1="23.1917" x2="39.7706" y2="23.1406" gradientUnits="userSpaceOnUse">
<stop stop-color="#6D89CF"/>
<stop offset="1" stop-color="#EEEEFF" stop-opacity="0"/>
</linearGradient>
<linearGradient id="paint14_linear_2976_51315" x1="17.3629" y1="15.1766" x2="15.8112" y2="15.0805" gradientUnits="userSpaceOnUse">
<stop stop-color="#6D89CF"/>
<stop offset="1" stop-color="#EEEEFF" stop-opacity="0"/>
</linearGradient>
<linearGradient id="paint15_linear_2976_51315" x1="19.3043" y1="15.1766" x2="17.7526" y2="15.0805" gradientUnits="userSpaceOnUse">
<stop stop-color="#6D89CF"/>
<stop offset="1" stop-color="#EEEEFF" stop-opacity="0"/>
</linearGradient>
<linearGradient id="paint16_linear_2976_51315" x1="17.3629" y1="19.8924" x2="15.8112" y2="19.7963" gradientUnits="userSpaceOnUse">
<stop stop-color="#6D89CF"/>
<stop offset="1" stop-color="#EEEEFF" stop-opacity="0"/>
</linearGradient>
<linearGradient id="paint17_linear_2976_51315" x1="19.3043" y1="19.8924" x2="17.7526" y2="19.7963" gradientUnits="userSpaceOnUse">
<stop stop-color="#6D89CF"/>
<stop offset="1" stop-color="#EEEEFF" stop-opacity="0"/>
</linearGradient>
<linearGradient id="paint18_linear_2976_51315" x1="17.3629" y1="17.5066" x2="15.8112" y2="17.4106" gradientUnits="userSpaceOnUse">
<stop stop-color="#6D89CF"/>
<stop offset="1" stop-color="#EEEEFF" stop-opacity="0"/>
</linearGradient>
<linearGradient id="paint19_linear_2976_51315" x1="19.3043" y1="17.5066" x2="17.7526" y2="17.4106" gradientUnits="userSpaceOnUse">
<stop stop-color="#6D89CF"/>
<stop offset="1" stop-color="#EEEEFF" stop-opacity="0"/>
</linearGradient>
<linearGradient id="paint20_linear_2976_51315" x1="17.3629" y1="22.1678" x2="15.8112" y2="22.0717" gradientUnits="userSpaceOnUse">
<stop stop-color="#6D89CF"/>
<stop offset="1" stop-color="#EEEEFF" stop-opacity="0"/>
</linearGradient>
<linearGradient id="paint21_linear_2976_51315" x1="19.3043" y1="22.1678" x2="17.7526" y2="22.0717" gradientUnits="userSpaceOnUse">
<stop stop-color="#6D89CF"/>
<stop offset="1" stop-color="#EEEEFF" stop-opacity="0"/>
</linearGradient>
<linearGradient id="paint22_linear_2976_51315" x1="34.5714" y1="17.3274" x2="33.2218" y2="17.2439" gradientUnits="userSpaceOnUse">
<stop stop-color="#6D89CF"/>
<stop offset="1" stop-color="#EEEEFF" stop-opacity="0"/>
</linearGradient>
<linearGradient id="paint23_linear_2976_51315" x1="36.2354" y1="17.3274" x2="34.8859" y2="17.2439" gradientUnits="userSpaceOnUse">
<stop stop-color="#6D89CF"/>
<stop offset="1" stop-color="#EEEEFF" stop-opacity="0"/>
</linearGradient>
<linearGradient id="paint24_linear_2976_51315" x1="34.5714" y1="19.3245" x2="33.2218" y2="19.2409" gradientUnits="userSpaceOnUse">
<stop stop-color="#6D89CF"/>
<stop offset="1" stop-color="#EEEEFF" stop-opacity="0"/>
</linearGradient>
<linearGradient id="paint25_linear_2976_51315" x1="36.2354" y1="19.3245" x2="34.8859" y2="19.2409" gradientUnits="userSpaceOnUse">
<stop stop-color="#6D89CF"/>
<stop offset="1" stop-color="#EEEEFF" stop-opacity="0"/>
</linearGradient>
<linearGradient id="paint26_linear_2976_51315" x1="34.5714" y1="21.3216" x2="33.2218" y2="21.238" gradientUnits="userSpaceOnUse">
<stop stop-color="#6D89CF"/>
<stop offset="1" stop-color="#EEEEFF" stop-opacity="0"/>
</linearGradient>
<linearGradient id="paint27_linear_2976_51315" x1="36.2354" y1="21.3216" x2="34.8859" y2="21.238" gradientUnits="userSpaceOnUse">
<stop stop-color="#6D89CF"/>
<stop offset="1" stop-color="#EEEEFF" stop-opacity="0"/>
</linearGradient>
<linearGradient id="paint28_linear_2976_51315" x1="11.5348" y1="20.4814" x2="4.59377" y2="20.3449" gradientUnits="userSpaceOnUse">
<stop stop-color="#6D89CF"/>
<stop offset="1" stop-color="#EEEEFF" stop-opacity="0"/>
</linearGradient>
<linearGradient id="paint29_linear_2976_51315" x1="18.8426" y1="19.4878" x2="10.5716" y2="19.3423" gradientUnits="userSpaceOnUse">
<stop stop-color="#6D89CF"/>
<stop offset="1" stop-color="#EEEEFF" stop-opacity="0"/>
</linearGradient>
<linearGradient id="paint30_linear_2976_51315" x1="27.8886" y1="20.0255" x2="17.7746" y2="19.7739" gradientUnits="userSpaceOnUse">
<stop stop-color="#6D89CF"/>
<stop offset="1" stop-color="#EEEEFF" stop-opacity="0"/>
</linearGradient>
<linearGradient id="paint31_linear_2976_51315" x1="34.5718" y1="20.8873" x2="27.2629" y2="20.7123" gradientUnits="userSpaceOnUse">
<stop stop-color="#6D89CF"/>
<stop offset="1" stop-color="#EEEEFF" stop-opacity="0"/>
</linearGradient>
<linearGradient id="paint32_linear_2976_51315" x1="33.6905" y1="9.06906" x2="29.8001" y2="8.44958" gradientUnits="userSpaceOnUse">
<stop stop-color="#6D89CF"/>
<stop offset="1" stop-color="#EEEEFF" stop-opacity="0"/>
</linearGradient>
<linearGradient id="paint33_linear_2976_51315" x1="25.6064" y1="4.33367" x2="21.2189" y2="3.61324" gradientUnits="userSpaceOnUse">
<stop stop-color="#6D89CF"/>
<stop offset="1" stop-color="#EEEEFF" stop-opacity="0"/>
</linearGradient>
<linearGradient id="paint34_linear_2976_51315" x1="16.3297" y1="1.38283" x2="12.2773" y2="0.797301" gradientUnits="userSpaceOnUse">
<stop stop-color="#6D89CF"/>
<stop offset="1" stop-color="#EEEEFF" stop-opacity="0"/>
</linearGradient>
</defs>
</svg>
