<svg width="24" height="24" viewBox="0 0 24 24" fill="none" xmlns="http://www.w3.org/2000/svg">
<path fill-rule="evenodd" clip-rule="evenodd" d="M0 0.000976562H1.89788V24.0001H0V0.000976562Z" fill="#163D5C"/>
<path fill-rule="evenodd" clip-rule="evenodd" d="M0 0.000976562H1.89788V24.0001H0V0.000976562Z" fill="#163D5C"/>
<path fill-rule="evenodd" clip-rule="evenodd" d="M3.84517 0.00718867C3.84286 0.00490143 3.84054 0.00261406 3.83789 0V16.1009C10.4018 20.1792 16.9658 3.97003 23.5293 8.0493C16.9676 -1.39394 10.4065 9.43571 3.84552 0.00677511L3.84517 0.00718867Z" fill="#163D5C"/>
<path fill-rule="evenodd" clip-rule="evenodd" d="M3.84517 0.00718867C3.84286 0.00490143 3.84054 0.00261406 3.83789 0V16.1009C10.4018 20.1792 16.9658 3.97003 23.5293 8.0493C16.9676 -1.39394 10.4065 9.43571 3.84552 0.00677511L3.84517 0.00718867Z" fill="#163D5C"/>
</svg>
