<svg width="20" height="24" viewBox="0 0 20 24" fill="none" xmlns="http://www.w3.org/2000/svg">
<path d="M17.6 10.4002H16.3999V7.00004C16.3999 3.14038 13.2595 0 9.39984 0C5.54018 0 2.3998 3.14038 2.3998 7.00004V10.4002H1.59987C0.716218 10.4002 0 11.1167 0 12.0001V22.4001C0 23.2838 0.716504 24 1.59987 24H17.6C18.4836 24 19.1998 23.2835 19.1998 22.4001V12.0001C19.1998 11.1164 18.4836 10.4002 17.6 10.4002ZM10.8 18.8003C10.8 19.4629 10.2629 20.0003 9.59991 20.0003C8.93725 20.0003 8.39984 19.4632 8.39984 18.8003V15.6002C8.39984 14.9375 8.93695 14.4001 9.59991 14.4001C10.2626 14.4001 10.8 14.9372 10.8 15.6002V18.8003ZM4.79996 10.4002V7.00004C4.79996 4.46374 6.86361 2.40016 9.39984 2.40016C11.9364 2.40016 14 4.46381 14 7.00004V10.4002H4.79996Z" fill="#163D5C"/>
</svg>
