<svg width="57" height="58" viewBox="0 0 57 58" fill="none" xmlns="http://www.w3.org/2000/svg">
<rect width="56.7527" height="58" rx="10" fill="#FAFAFA"/>
<path fill-rule="evenodd" clip-rule="evenodd" d="M17.8892 20.0768L20.1475 17.9549L21.1752 17.5059C22.8833 16.7589 26.0205 22.3743 24.6805 23.8332L22.8019 25.8198C21.1233 27.6463 28.1469 35.8569 30.2114 34.4818L32.465 32.9336C34.1138 31.8358 39.1755 35.8049 38.1729 37.3769L37.5699 38.3226L35.1238 40.2248C25.7308 41.1453 15.5245 29.2138 17.8892 20.0768L17.8892 20.0768Z" fill="url(#paint0_linear_2976_51356)"/>
<path fill-rule="evenodd" clip-rule="evenodd" d="M17.8892 20.0768L20.1475 17.9549L21.1752 17.5059C22.8833 16.7589 26.0205 22.3743 24.6805 23.8332L22.8019 25.8198C21.1233 27.6463 28.1469 35.8569 30.2114 34.4818L32.465 32.9336C34.1138 31.8358 39.1755 35.8049 38.1729 37.3769L37.5699 38.3226L35.1238 40.2248C25.7308 41.1453 15.5245 29.2138 17.8892 20.0768L17.8892 20.0768Z" fill="#163D5C"/>
<defs>
<linearGradient id="paint0_linear_2976_51356" x1="38.9725" y1="35.4399" x2="13.243" y2="36.6455" gradientUnits="userSpaceOnUse">
<stop stop-color="#8B39E5"/>
<stop offset="1" stop-color="#EEEEFF" stop-opacity="0"/>
</linearGradient>
</defs>
</svg>
